Coordinates
version=1
nRows=27
nColumns=38
inDegrees=no

Units are S.I. units (second, meters, Newtons, ...)
If the header above contains a line with 'inDegrees', this indicates whether rotational values are in degrees (yes) or radians (no).

endheader
time	pelvis_tilt	pelvis_list	pelvis_rotation	pelvis_tx	pelvis_ty	pelvis_tz	hip_flexion_r	hip_adduction_r	hip_rotation_r	knee_angle_r	ankle_angle_r	subtalar_angle_r	mtp_angle_r	hip_flexion_l	hip_adduction_l	hip_rotation_l	knee_angle_l	ankle_angle_l	subtalar_angle_l	mtp_angle_l	lumbar_extension	lumbar_bending	lumbar_rotation	arm_flex_r	arm_add_r	arm_rot_r	elbow_flex_r	pro_sup_r	wrist_flex_r	wrist_dev_r	arm_flex_l	arm_add_l	arm_rot_l	elbow_flex_l	pro_sup_l	wrist_flex_l	wrist_dev_l
0	-1.54797	1.50896	0.0359959	0.720636	2.03986	0.919925	0.288314	0.0331609	-0.344904	0.368149	0.0991638	0	0	0.107827	-0.244139	-0.166805	1.08446	-0.189339	0	0	-0.11707	0.185058	0.0412759	-0.188311	-0.379005	0.246498	0.663395	1.28094	0	0	0.00221912	-0.298949	0.704631	0.570305	0.83185	0	0
0.01	-1.52176	1.52347	0.0125054	0.71863	2.03063	0.921083	0.272953	0.0208033	-0.346776	0.366028	0.114359	0	0	0.13219	-0.230976	-0.156874	1.11645	-0.167624	0	0	-0.115639	0.166398	0.0392489	-0.187769	-0.37231	0.236979	0.662253	1.28351	0	0	-0.000726175	-0.306628	0.705202	0.57994	0.836664	0	0
0.02	-1.42718	1.52804	-0.0867177	0.716803	2.02202	0.922885	0.255236	0.0205255	-0.34227	0.359904	0.120226	0	0	0.151144	-0.228328	-0.154721	1.14332	-0.145144	0	0	-0.120421	0.160469	0.0449218	-0.185958	-0.371805	0.226156	0.666161	1.29179	0	0	-0.0019757	-0.306828	0.700562	0.583507	0.842597	0	0
0.03	-1.27329	1.53245	-0.245316	0.714955	2.01332	0.924879	0.234975	0.0197806	-0.337924	0.351536	0.125083	0	0	0.16681	-0.224698	-0.153816	1.16296	-0.125853	0	0	-0.126367	0.153466	0.050297	-0.184106	-0.370323	0.212208	0.66998	1.29447	0	0	-0.0034149	-0.306583	0.69306	0.586451	0.846384	0	0
0.04	-1.11368	1.53635	-0.409076	0.713184	2.00468	0.926743	0.215768	0.0183973	-0.334672	0.34263	0.129454	0	0	0.182959	-0.220548	-0.153505	1.17687	-0.109553	0	0	-0.130654	0.146186	0.0550733	-0.182586	-0.368643	0.198735	0.674643	1.2926	0	0	-0.00470725	-0.306491	0.687889	0.589657	0.852283	0	0
0.05	-0.95949	1.53982	-0.567233	0.711532	1.9961	0.928412	0.198089	0.0167638	-0.331555	0.333655	0.133473	0	0	0.199972	-0.215715	-0.15367	1.18592	-0.0958539	0	0	-0.133023	0.139255	0.05927	-0.180607	-0.368076	0.192273	0.67976	1.29336	0	0	-0.00623244	-0.306182	0.683011	0.593564	0.85568	0	0
0.06	-0.796085	1.54284	-0.734413	0.709992	1.98752	0.929954	0.181023	0.0149733	-0.328565	0.324196	0.137462	0	0	0.216963	-0.210546	-0.154522	1.19026	-0.0844636	0	0	-0.134189	0.132582	0.0632705	-0.179374	-0.367373	0.184757	0.68639	1.29415	0	0	-0.00809204	-0.305525	0.676283	0.598306	0.858045	0	0
0.07	-0.614313	1.54553	-0.920237	0.708572	1.97902	0.931388	0.164875	0.0126727	-0.325329	0.314994	0.141724	0	0	0.233606	-0.20531	-0.157159	1.18983	-0.0752879	0	0	-0.134512	0.12604	0.0674792	-0.178834	-0.367381	0.178323	0.69508	1.29557	0	0	-0.00994426	-0.304195	0.668889	0.601203	0.858159	0	0
0.08	-0.407003	1.54803	-1.13274	0.707126	1.97066	0.932694	0.150232	0.0100339	-0.320809	0.306498	0.145961	0	0	0.250317	-0.199569	-0.16118	1.1853	-0.0672524	0	0	-0.134189	0.119317	0.0726644	-0.178488	-0.367794	0.171774	0.705377	1.29494	0	0	-0.011664	-0.302673	0.661271	0.604723	0.857652	0	0
0.09	-0.187239	1.54959	-1.35848	0.705541	1.96219	0.933887	0.135808	0.0080282	-0.315616	0.297833	0.14985	0	0	0.265834	-0.195005	-0.167645	1.17647	-0.0580906	0	0	-0.133152	0.112852	0.0785369	-0.178451	-0.36779	0.164911	0.716042	1.2917	0	0	-0.0138041	-0.301157	0.652372	0.609201	0.856567	0	0
0.1	0.0494495	1.54933	-1.6014	0.703931	1.95362	0.935077	0.119727	0.00644243	-0.308111	0.287445	0.153099	0	0	0.278865	-0.191152	-0.177425	1.16256	-0.0481738	0	0	-0.132619	0.106386	0.0843803	-0.178327	-0.367558	0.158676	0.72717	1.28722	0	0	-0.016498	-0.29943	0.640784	0.614529	0.854434	0	0
0.11	0.267305	1.54663	-1.825	0.702339	1.94517	0.936295	0.102197	0.0046896	-0.301278	0.276185	0.156322	0	0	0.289535	-0.187083	-0.188653	1.1448	-0.0357527	0	0	-0.133764	0.0993754	0.0893611	-0.176939	-0.367453	0.154735	0.737689	1.28316	0	0	-0.0188092	-0.298301	0.629303	0.620821	0.852041	0	0
0.12	0.412002	1.54194	-1.97525	0.700841	1.93676	0.937543	0.0829427	0.00302597	-0.294703	0.263675	0.158722	0	0	0.297636	-0.183124	-0.201346	1.1236	-0.0215857	0	0	-0.136283	0.092407	0.0945935	-0.17592	-0.367699	0.150826	0.749456	1.27688	0	0	-0.0201775	-0.297088	0.618482	0.626909	0.849904	0	0
0.13	0.49458	1.53677	-2.06398	0.699267	1.92845	0.93871	0.0634026	0.00188617	-0.287124	0.251072	0.160487	0	0	0.304073	-0.180253	-0.216083	1.09898	-0.00791589	0	0	-0.139196	0.0856919	0.100798	-0.174337	-0.368234	0.149074	0.76025	1.27351	0	0	-0.020348	-0.295924	0.60972	0.63242	0.848396	0	0
0.14	0.545458	1.53099	-2.1211	0.697712	1.92019	0.939806	0.0428967	0.000814968	-0.278255	0.237556	0.161758	0	0	0.308465	-0.177296	-0.232126	1.07032	0.00260237	0	0	-0.142889	0.0789055	0.107118	-0.17225	-0.368938	0.148544	0.770709	1.27459	0	0	-0.0197184	-0.294551	0.601396	0.637262	0.846837	0	0
0.15	0.553944	1.52428	-2.13504	0.696283	1.91196	0.94097	0.0161343	0.00276483	-0.260506	0.213569	0.157768	0	0	0.310025	-0.174355	-0.248405	1.03742	0.0101696	0	0	-0.149095	0.0730393	0.11038	-0.167396	-0.37024	0.150596	0.780897	1.27551	0	0	-0.0208106	-0.293253	0.58915	0.643691	0.847308	0	0
0.16	0.645426	1.51896	-2.22856	0.694118	1.90347	0.941464	0.00215145	-0.00131753	-0.261786	0.210504	0.163419	0	0	0.313735	-0.182021	-0.26608	1.00105	0.0246265	0	0	-0.149826	0.0623728	0.11318	-0.164982	-0.368815	0.150138	0.789555	1.27515	0	0	-0.019344	-0.294322	0.584365	0.648262	0.847227	0	0
0.17	0.633594	1.5148	-2.22413	0.693871	1.89567	0.942135	-0.0175357	-0.00406569	-0.25958	0.197731	0.167579	0	0	0.316693	-0.165103	-0.281625	0.963469	0.023346	0	0	-0.153886	0.059669	0.120451	-0.162051	-0.371122	0.148246	0.799065	1.27599	0	0	-0.0164636	-0.291594	0.581862	0.65154	0.846384	0	0
0.18	0.663381	1.50703	-2.25477	0.691905	1.88723	0.942788	-0.0405222	-0.00469204	-0.250499	0.182451	0.166773	0	0	0.312771	-0.17265	-0.303644	0.918857	0.0390475	0	0	-0.158843	0.0493991	0.122529	-0.159805	-0.370058	0.148461	0.809637	1.28382	0	0	-0.0129424	-0.292125	0.576788	0.65516	0.846769	0	0
0.19	0.681958	1.50382	-2.27648	0.691026	1.87919	0.942944	-0.0581968	-0.00572143	-0.246809	0.169892	0.168607	0	0	0.31445	-0.167685	-0.322781	0.87454	0.0469351	0	0	-0.161475	0.0445115	0.123395	-0.154345	-0.371466	0.15196	0.818634	1.28847	0	0	-0.0120405	-0.291568	0.571752	0.66084	0.849497	0	0
0.2	0.657239	1.4962	-2.25756	0.69032	1.87111	0.942913	-0.0841649	-0.00960607	-0.247228	0.152738	0.174096	0	0	0.310954	-0.148662	-0.339892	0.828144	0.0457982	0	0	-0.156529	0.0421557	0.17144	-0.196589	-0.359889	0.0782782	0.843334	1.32683	0	0	0.0474794	-0.314515	0.773969	0.654122	0.709373	0	0
0.21	0.675324	1.49746	-2.28213	0.690083	1.86359	0.942912	-0.0949642	-0.00997551	-0.23904	0.144003	0.174408	0	0	0.314455	-0.143774	-0.358914	0.776907	0.0491107	0	0	-0.169573	0.0383349	0.130019	-0.143282	-0.374637	0.151042	0.837557	1.31821	0	0	-0.00832939	-0.288251	0.566365	0.667911	0.844637	0	0
0.22	0.686317	1.49577	-2.29684	0.689423	1.8555	0.942505	-0.110855	-0.0106771	-0.23464	0.133028	0.177151	0	0	0.31436	-0.137948	-0.378473	0.724373	0.0517324	0	0	-0.170482	0.0345592	0.133356	-0.140213	-0.375628	0.150525	0.846416	1.31689	0	0	-0.00481529	-0.285115	0.561238	0.666573	0.861877	0	0
0.23	0.70096	1.49592	-2.31361	0.688999	1.84757	0.941758	-0.123722	-0.0106632	-0.232635	0.12475	0.181056	0	0	0.316889	-0.131731	-0.394875	0.67167	0.0535198	0	0	-0.170142	0.0320663	0.134911	-0.136454	-0.376372	0.149905	0.854412	1.31758	0	0	-0.00126385	-0.282944	0.559342	0.666982	0.868012	0	0
0.24	0.718987	1.49527	-2.33331	0.688685	1.83969	0.940888	-0.136583	-0.0115937	-0.230257	0.117241	0.185284	0	0	0.317885	-0.123773	-0.411759	0.616069	0.0542954	0	0	-0.170789	0.0291193	0.135024	-0.13178	-0.377522	0.152636	0.863333	1.32326	0	0	0.00193476	-0.281836	0.559067	0.669437	0.873296	0	0
0.25	0.740987	1.49533	-2.35593	0.688633	1.8319	0.939805	-0.147913	-0.0124648	-0.228574	0.111171	0.189789	0	0	0.31964	-0.114298	-0.425898	0.559132	0.0546224	0	0	-0.171033	0.0267436	0.133765	-0.126667	-0.379144	0.156468	0.872213	1.3307	0	0	0.00514698	-0.280349	0.558407	0.672154	0.878567	0	0
0.26	0.767363	1.49652	-2.38136	0.688918	1.82419	0.938506	-0.1574	-0.0128283	-0.228433	0.10671	0.194643	0	0	0.322602	-0.103303	-0.434607	0.501447	0.0546189	0	0	-0.170183	0.0251498	0.131637	-0.121977	-0.380314	0.157121	0.879237	1.33544	0	0	0.00903656	-0.27781	0.557184	0.672008	0.883636	0	0
